PathFileType	4	(X/Y/Z)	C:\Users\italobelli\Desktop\GitHub\PTbot_officialCBL\Personal_Results\SHRUG21_noisy1.trc
DataRate	CameraRate	NumFrames	NumMarkers	Units	OrigDataRate	OrigDataStartFrame	OrigNumFrames
112.250000	112.250000	47	9	m	112.250000	169	450
Frame#	Time		gu		centelbow		EpL		centpxt8		centijc7		ij		ts		aa		ai
			X1	Y1	Z1	X2	Y2	Z2	X3	Y3	Z3	X4	Y4	Z4	X5	Y5	Z5	X6	Y6	Z6	X7	Y7	Z7	X8	Y8	Z8	X9	Y9	Z9

169	1.4967	-0.091733	0.049306	0.15859	-0.10451	-0.19351	0.20296	-0.09143	-0.18406	0.23087	-0.046816	-0.15316	-0.008669	-0.046816	0.031938	-0.008669	0	0	0	-0.13544	0.05512	0.031764	-0.12145	0.087242	0.14577	-0.15598	-0.050005	0.069329
170	1.5056	-0.091876	0.049374	0.15859	-0.10454	-0.19352	0.20311	-0.091459	-0.18407	0.23103	-0.046816	-0.15316	-0.008669	-0.046816	0.031938	-0.008669	0	0	0	-0.13546	0.05514	0.031726	-0.12163	0.087246	0.14575	-0.15598	-0.049999	0.069318
171	1.5145	-0.092018	0.049433	0.1586	-0.1046	-0.19354	0.20324	-0.091511	-0.1841	0.23117	-0.046816	-0.15316	-0.008669	-0.046816	0.031938	-0.008669	0	0	0	-0.13547	0.055156	0.031692	-0.12181	0.087239	0.14575	-0.15599	-0.049997	0.0693
172	1.5234	-0.092159	0.04949	0.1586	-0.10468	-0.19357	0.20336	-0.091587	-0.18412	0.2313	-0.046816	-0.15316	-0.008669	-0.046816	0.031938	-0.008669	0	0	0	-0.13549	0.055171	0.031659	-0.12198	0.087231	0.14574	-0.156	-0.049996	0.069277
173	1.5323	-0.092299	0.049546	0.15861	-0.10477	-0.1936	0.20346	-0.091686	-0.18416	0.23141	-0.046816	-0.15316	-0.008669	-0.046816	0.031938	-0.008669	0	0	0	-0.1355	0.055184	0.031626	-0.12215	0.08722	0.14573	-0.15601	-0.049997	0.06925
174	1.5412	-0.092438	0.0496	0.15861	-0.10488	-0.19363	0.20354	-0.091806	-0.1842	0.23151	-0.046816	-0.15316	-0.008669	-0.046816	0.031938	-0.008669	0	0	0	-0.13552	0.055197	0.031594	-0.12233	0.087207	0.14573	-0.15603	-0.049998	0.069217
175	1.5501	-0.092576	0.049653	0.15862	-0.10501	-0.19368	0.20361	-0.091948	-0.18425	0.2316	-0.046816	-0.15316	-0.008669	-0.046816	0.031938	-0.008669	0	0	0	-0.13554	0.055209	0.031563	-0.1225	0.087192	0.14572	-0.15604	-0.050001	0.069181
176	1.559	-0.092713	0.049704	0.15863	-0.10516	-0.19372	0.20366	-0.09211	-0.1843	0.23166	-0.046816	-0.15316	-0.008669	-0.046816	0.031938	-0.008669	0	0	0	-0.13555	0.05522	0.031533	-0.12266	0.087176	0.14572	-0.15606	-0.050005	0.06914
177	1.5679	-0.09285	0.049755	0.15864	-0.10533	-0.19377	0.2037	-0.092292	-0.18436	0.23172	-0.046816	-0.15316	-0.008669	-0.046816	0.031938	-0.008669	0	0	0	-0.13557	0.05523	0.031504	-0.12283	0.087157	0.14571	-0.15609	-0.050009	0.069095
178	1.5768	-0.092985	0.049804	0.15865	-0.10551	-0.19383	0.20373	-0.092493	-0.18442	0.23176	-0.046816	-0.15316	-0.008669	-0.046816	0.031938	-0.008669	0	0	0	-0.13559	0.055239	0.031475	-0.123	0.087137	0.14571	-0.15611	-0.050015	0.069046
179	1.5857	-0.093118	0.049851	0.15866	-0.10571	-0.19388	0.20374	-0.092713	-0.18448	0.2318	-0.046816	-0.15316	-0.008669	-0.046816	0.031938	-0.008669	0	0	0	-0.1356	0.055247	0.031448	-0.12316	0.087115	0.14571	-0.15614	-0.050022	0.068993
180	1.5947	-0.093251	0.049898	0.15867	-0.10592	-0.19395	0.20375	-0.09295	-0.18455	0.23182	-0.046816	-0.15316	-0.008669	-0.046816	0.031938	-0.008669	0	0	0	-0.13562	0.055255	0.03142	-0.12332	0.087092	0.1457	-0.15616	-0.05003	0.068937
181	1.6036	-0.093383	0.049943	0.15868	-0.10615	-0.19401	0.20374	-0.093203	-0.18463	0.23182	-0.046816	-0.15316	-0.008669	-0.046816	0.031938	-0.008669	0	0	0	-0.13564	0.055262	0.031394	-0.12348	0.087067	0.1457	-0.15619	-0.050038	0.068877
182	1.6125	-0.093514	0.049986	0.15869	-0.10639	-0.19408	0.20372	-0.093473	-0.18471	0.23182	-0.046816	-0.15316	-0.008669	-0.046816	0.031938	-0.008669	0	0	0	-0.13566	0.055267	0.031369	-0.12364	0.087041	0.1457	-0.15623	-0.050047	0.068814
183	1.6214	-0.093644	0.050029	0.1587	-0.10664	-0.19416	0.20369	-0.093758	-0.18479	0.23181	-0.046816	-0.15316	-0.008669	-0.046816	0.031938	-0.008669	0	0	0	-0.13568	0.055273	0.031344	-0.1238	0.087013	0.1457	-0.15626	-0.050057	0.068748
184	1.6303	-0.093772	0.05007	0.15872	-0.10691	-0.19423	0.20365	-0.094058	-0.18488	0.23179	-0.046816	-0.15316	-0.008669	-0.046816	0.031938	-0.008669	0	0	0	-0.1357	0.055277	0.03132	-0.12395	0.086984	0.1457	-0.15629	-0.050068	0.068679
185	1.6392	-0.093899	0.05011	0.15873	-0.10719	-0.19431	0.2036	-0.094371	-0.18497	0.23177	-0.046816	-0.15316	-0.008669	-0.046816	0.031938	-0.008669	0	0	0	-0.13572	0.055281	0.031296	-0.12411	0.086954	0.1457	-0.15633	-0.05008	0.068607
186	1.6481	-0.094026	0.050148	0.15874	-0.10748	-0.1944	0.20354	-0.094698	-0.18506	0.23173	-0.046816	-0.15316	-0.008669	-0.046816	0.031938	-0.008669	0	0	0	-0.13574	0.055284	0.031273	-0.12426	0.086922	0.1457	-0.15637	-0.050092	0.068533
187	1.657	-0.094151	0.050186	0.15876	-0.10778	-0.19448	0.20348	-0.095037	-0.18516	0.23169	-0.046816	-0.15316	-0.008669	-0.046816	0.031938	-0.008669	0	0	0	-0.13576	0.055287	0.031251	-0.12441	0.086889	0.1457	-0.15641	-0.050105	0.068456
188	1.6659	-0.094275	0.050222	0.15877	-0.10809	-0.19457	0.20341	-0.095388	-0.18526	0.23164	-0.046816	-0.15316	-0.008669	-0.046816	0.031938	-0.008669	0	0	0	-0.13578	0.055289	0.03123	-0.12456	0.086856	0.1457	-0.15645	-0.050118	0.068377
189	1.6748	-0.094397	0.050257	0.15879	-0.10841	-0.19466	0.20333	-0.09575	-0.18536	0.23158	-0.046816	-0.15316	-0.008669	-0.046816	0.031938	-0.008669	0	0	0	-0.1358	0.055291	0.031209	-0.12471	0.086821	0.1457	-0.15649	-0.050132	0.068295
190	1.6837	-0.094519	0.050291	0.15881	-0.10874	-0.19475	0.20325	-0.096122	-0.18547	0.23152	-0.046816	-0.15316	-0.008669	-0.046816	0.031938	-0.008669	0	0	0	-0.13582	0.055292	0.031188	-0.12485	0.086785	0.1457	-0.15653	-0.050146	0.068212
191	1.6927	-0.094639	0.050324	0.15882	-0.10908	-0.19485	0.20317	-0.096504	-0.18558	0.23146	-0.046816	-0.15316	-0.008669	-0.046816	0.031938	-0.008669	0	0	0	-0.13584	0.055293	0.031169	-0.125	0.086749	0.1457	-0.15658	-0.050161	0.068127
192	1.7016	-0.094758	0.050355	0.15884	-0.10942	-0.19494	0.20307	-0.096894	-0.18569	0.23139	-0.046816	-0.15316	-0.008669	-0.046816	0.031938	-0.008669	0	0	0	-0.13586	0.055293	0.03115	-0.12514	0.086712	0.14571	-0.15662	-0.050176	0.06804
193	1.7105	-0.094876	0.050385	0.15886	-0.10977	-0.19504	0.20298	-0.097292	-0.1858	0.23132	-0.046816	-0.15316	-0.008669	-0.046816	0.031938	-0.008669	0	0	0	-0.13588	0.055294	0.031131	-0.12528	0.086674	0.14571	-0.15667	-0.050191	0.067952
194	1.7194	-0.094992	0.050415	0.15888	-0.11013	-0.19514	0.20288	-0.097698	-0.18591	0.23124	-0.046816	-0.15316	-0.008669	-0.046816	0.031938	-0.008669	0	0	0	-0.1359	0.055293	0.031113	-0.12542	0.086635	0.14571	-0.15671	-0.050207	0.067862
195	1.7283	-0.095108	0.050443	0.15889	-0.11049	-0.19524	0.20278	-0.09811	-0.18603	0.23116	-0.046816	-0.15316	-0.008669	-0.046816	0.031938	-0.008669	0	0	0	-0.13592	0.055293	0.031096	-0.12556	0.086596	0.14572	-0.15676	-0.050223	0.067772
196	1.7372	-0.095222	0.05047	0.15891	-0.11086	-0.19535	0.20268	-0.098528	-0.18614	0.23108	-0.046816	-0.15316	-0.008669	-0.046816	0.031938	-0.008669	0	0	0	-0.13594	0.055292	0.031079	-0.12569	0.086557	0.14572	-0.15681	-0.050239	0.06768
197	1.7461	-0.095334	0.050495	0.15893	-0.11124	-0.19545	0.20258	-0.098952	-0.18626	0.231	-0.046816	-0.15316	-0.008669	-0.046816	0.031938	-0.008669	0	0	0	-0.13596	0.055291	0.031063	-0.12583	0.086517	0.14572	-0.15686	-0.050255	0.067588
198	1.755	-0.095446	0.05052	0.15895	-0.11162	-0.19556	0.20247	-0.099379	-0.18638	0.23092	-0.046816	-0.15316	-0.008669	-0.046816	0.031938	-0.008669	0	0	0	-0.13598	0.05529	0.031047	-0.12596	0.086476	0.14573	-0.15691	-0.050271	0.067494
199	1.7639	-0.095556	0.050544	0.15897	-0.112	-0.19566	0.20237	-0.09981	-0.1865	0.23084	-0.046816	-0.15316	-0.008669	-0.046816	0.031938	-0.008669	0	0	0	-0.136	0.055289	0.031032	-0.12609	0.086436	0.14573	-0.15696	-0.050288	0.067401
200	1.7728	-0.095664	0.050566	0.15899	-0.11238	-0.19577	0.20227	-0.10024	-0.18662	0.23076	-0.046816	-0.15316	-0.008669	-0.046816	0.031938	-0.008669	0	0	0	-0.13602	0.055287	0.031017	-0.12622	0.086395	0.14574	-0.15701	-0.050304	0.067307
201	1.7817	-0.095772	0.050588	0.15901	-0.11277	-0.19587	0.20217	-0.10068	-0.18674	0.23068	-0.046816	-0.15316	-0.008669	-0.046816	0.031938	-0.008669	0	0	0	-0.13604	0.055286	0.031003	-0.12635	0.086354	0.14574	-0.15706	-0.050321	0.067213
202	1.7906	-0.095878	0.050608	0.15903	-0.11315	-0.19598	0.20207	-0.10112	-0.18686	0.23061	-0.046816	-0.15316	-0.008669	-0.046816	0.031938	-0.008669	0	0	0	-0.13606	0.055285	0.030989	-0.12648	0.086312	0.14575	-0.15711	-0.050337	0.067118
203	1.7996	-0.095982	0.050628	0.15905	-0.11354	-0.19609	0.20198	-0.10156	-0.18698	0.23053	-0.046816	-0.15316	-0.008669	-0.046816	0.031938	-0.008669	0	0	0	-0.13608	0.055283	0.030975	-0.1266	0.086271	0.14576	-0.15716	-0.050353	0.067024
204	1.8085	-0.096085	0.050646	0.15907	-0.11393	-0.19619	0.20189	-0.102	-0.1871	0.23046	-0.046816	-0.15316	-0.008669	-0.046816	0.031938	-0.008669	0	0	0	-0.13609	0.055282	0.030962	-0.12673	0.08623	0.14576	-0.15721	-0.050369	0.066931
205	1.8174	-0.096187	0.050663	0.15909	-0.11432	-0.1963	0.2018	-0.10243	-0.18722	0.2304	-0.046816	-0.15316	-0.008669	-0.046816	0.031938	-0.008669	0	0	0	-0.13611	0.05528	0.03095	-0.12685	0.086189	0.14577	-0.15726	-0.050385	0.066838
206	1.8263	-0.096288	0.05068	0.15911	-0.11471	-0.19641	0.20171	-0.10287	-0.18734	0.23034	-0.046816	-0.15316	-0.008669	-0.046816	0.031938	-0.008669	0	0	0	-0.13613	0.055279	0.030938	-0.12697	0.086148	0.14577	-0.15731	-0.050401	0.066745
207	1.8352	-0.096386	0.050695	0.15913	-0.11509	-0.19651	0.20164	-0.1033	-0.18746	0.23028	-0.046816	-0.15316	-0.008669	-0.046816	0.031938	-0.008669	0	0	0	-0.13615	0.055278	0.030926	-0.12709	0.086108	0.14578	-0.15736	-0.050416	0.066653
208	1.8441	-0.096484	0.050709	0.15915	-0.11548	-0.19662	0.20157	-0.10373	-0.18758	0.23023	-0.046816	-0.15316	-0.008669	-0.046816	0.031938	-0.008669	0	0	0	-0.13617	0.055277	0.030915	-0.1272	0.086067	0.14579	-0.15741	-0.050431	0.066563
209	1.853	-0.09658	0.050723	0.15917	-0.11586	-0.19672	0.2015	-0.10416	-0.1877	0.23018	-0.046816	-0.15316	-0.008669	-0.046816	0.031938	-0.008669	0	0	0	-0.13619	0.055277	0.030904	-0.12732	0.086028	0.14579	-0.15746	-0.050446	0.066473
210	1.8619	-0.096674	0.050735	0.15919	-0.11623	-0.19682	0.20144	-0.10458	-0.18781	0.23015	-0.046816	-0.15316	-0.008669	-0.046816	0.031938	-0.008669	0	0	0	-0.1362	0.055276	0.030893	-0.12743	0.085988	0.1458	-0.15751	-0.05046	0.066385
211	1.8708	-0.096767	0.050746	0.15921	-0.11661	-0.19692	0.20139	-0.105	-0.18793	0.23011	-0.046816	-0.15316	-0.008669	-0.046816	0.031938	-0.008669	0	0	0	-0.13622	0.055276	0.030883	-0.12755	0.085949	0.14581	-0.15756	-0.050474	0.066298
212	1.8797	-0.096859	0.050757	0.15923	-0.11698	-0.19702	0.20135	-0.10541	-0.18804	0.23009	-0.046816	-0.15316	-0.008669	-0.046816	0.031938	-0.008669	0	0	0	-0.13624	0.055276	0.030873	-0.12766	0.085911	0.14582	-0.15761	-0.050487	0.066213
213	1.8886	-0.096949	0.050767	0.15925	-0.11734	-0.19712	0.20132	-0.10582	-0.18815	0.23008	-0.046816	-0.15316	-0.008669	-0.046816	0.031938	-0.008669	0	0	0	-0.13625	0.055277	0.030863	-0.12776	0.085873	0.14582	-0.15765	-0.0505	0.066129
214	1.8976	-0.097037	0.050775	0.15927	-0.1177	-0.19722	0.2013	-0.10622	-0.18826	0.23008	-0.046816	-0.15316	-0.008669	-0.046816	0.031938	-0.008669	0	0	0	-0.13627	0.055278	0.030854	-0.12787	0.085836	0.14583	-0.1577	-0.050512	0.066048
215	1.9065	-0.097124	0.050783	0.15929	-0.11805	-0.19731	0.20129	-0.10661	-0.18837	0.23008	-0.046816	-0.15316	-0.008669	-0.046816	0.031938	-0.008669	0	0	0	-0.13628	0.055279	0.030845	-0.12798	0.0858	0.14584	-0.15775	-0.050523	0.065968
